<svg width="56" height="57" viewBox="0 0 56 57" fill="none" xmlns="http://www.w3.org/2000/svg">
<path d="M40.3681 25H54.1318C54.8737 25 55.2789 25.8652 54.804 26.4352L47.9222 34.6934C47.5723 35.1132 46.9276 35.1132 46.5778 34.6934L39.6959 26.4352C39.221 25.8652 39.6263 25 40.3681 25Z" fill="#DAFF01"/>
<path d="M1.86813 32H15.6318C16.3737 32 16.7789 31.1348 16.304 30.5648L9.42216 22.3066C9.07234 21.8868 8.42759 21.8868 8.07777 22.3066L1.19593 30.5648C0.721008 31.1348 1.12627 32 1.86813 32Z" fill="#DAFF01"/>
<path fill-rule="evenodd" clip-rule="evenodd" d="M28 11C22.5662 11 17.7119 13.4744 14.4994 17.3644C13.8839 18.1096 12.7809 18.2148 12.0357 17.5993C11.2905 16.9839 11.1853 15.8809 11.8007 15.1356C15.6497 10.4751 21.4781 7.5 28 7.5C38.2959 7.5 46.858 14.9078 48.6538 24.6838C48.6731 24.789 48.6916 24.8944 48.7093 25H45.1503C43.5297 17.0122 36.4652 11 28 11ZM10.8497 32C12.4702 39.9878 19.5348 46 28 46C33.4337 46 38.288 43.5256 41.5006 39.6356C42.116 38.8904 43.219 38.7852 43.9643 39.4007C44.7095 40.0161 44.8147 41.1191 44.1992 41.8644C40.3503 46.5249 34.5218 49.5 28 49.5C17.704 49.5 9.14189 42.0922 7.34617 32.3162C7.32686 32.211 7.30834 32.1056 7.2906 32H10.8497Z" fill="#DAFF01"/>
</svg>
